<svg viewBox="0 0 2109.082 154.909" height="154.909" width="2109.082" xmlns="http://www.w3.org/2000/svg">
  	<path fill="#fff" transform="translate(824.245 2076.909)" d="M1284.837-2047.175c-33.266.5-86.573.381-206.379-10.037-137-11.913-242.89-18.531-308.411-19.193s-285.91,14.561-391.141,23.826-250.17,3.971-313.705-1.324-230.978-18.531-291.2-21.84-161.529.257-300.257,12.868c-126.9,11.537-273.854,14.916-297.985,15.409v95.414c51.3-1.2,106.321,5.033,170.7,8.747,68.83,3.971,291.2,21.178,339.517,20.516s177.37-4.632,335.547-19.855,264.731-8.6,345.474-3.971,305.763,26.474,408.347,24.488,192.592-11.913,312.382-21.178c92.676-7.168,167.831-8.267,197.113-8.4Z" data-name="Path 4353" id="Path_4353"></path>
</svg>